<svg version="1.1" id="Layer_1" xmlns="http://www.w3.org/2000/svg" xmlns:xlink="http://www.w3.org/1999/xlink" x="0px" y="0px"
	 width="100%" viewBox="0 0 102 102" enable-background="new 0 0 102 102" xml:space="preserve">
<path fill="#FEF3EE" opacity="1.000000" stroke="none" 
	d="
M62.000000,103.000000 
	C41.333336,103.000000 21.166674,103.000000 1.000008,103.000000 
	C1.000005,69.000008 1.000005,35.000019 1.000003,1.000022 
	C34.999985,1.000015 68.999969,1.000015 102.999969,1.000007 
	C102.999977,34.999977 102.999977,68.999954 102.999985,102.999969 
	C89.500000,103.000000 76.000000,103.000000 62.000000,103.000000 
M60.887215,64.866173 
	C60.887215,64.866173 60.838703,64.824974 61.489544,64.923836 
	C64.332817,64.341499 67.176086,63.759151 70.272270,63.125008 
	C73.552216,67.118690 80.217651,67.166595 83.756653,62.094765 
	C80.212791,62.094765 77.095398,62.094765 73.606018,62.094765 
	C75.105034,60.452198 76.059212,59.406643 77.721191,58.203899 
	C78.165146,56.953053 79.302803,55.419083 78.928574,54.502159 
	C77.572289,51.179005 75.708717,48.062889 74.016594,44.183018 
	C72.306129,42.434464 72.634331,38.506653 67.856216,39.162197 
	C63.394573,38.151283 61.183376,40.103710 60.267605,44.443447 
	C59.657909,47.332710 58.402149,50.085640 56.845337,52.226463 
	C55.256210,47.880024 53.667080,43.533588 51.210297,39.122707 
	C49.090683,39.601776 45.858875,37.588493 45.022652,42.333652 
	C43.937611,46.061329 42.852570,49.789005 41.279472,52.933170 
	C39.671818,48.498566 38.064159,44.063961 36.377151,39.410465 
	C31.011421,41.171345 26.155312,42.810249 21.268818,44.352894 
	C17.934982,45.405369 18.169825,47.129814 20.209078,49.537937 
	C23.946249,48.283089 27.652599,47.038593 31.793392,45.648220 
	C33.033623,51.627235 26.999964,49.883350 25.495050,52.786400 
	C26.845135,59.469143 31.324862,52.916420 34.260040,54.864658 
	C35.628273,57.938313 37.203075,61.476017 39.671223,65.086967 
	C41.593315,64.784004 43.515404,64.481041 45.874783,63.635033 
	C46.948494,60.062996 48.022209,56.490963 49.617035,53.432003 
	C50.905525,57.310421 52.194016,61.188843 53.957779,65.696526 
	C54.980122,65.821358 56.002464,65.946190 57.492126,66.585747 
	C58.617523,65.994217 59.742920,65.402695 60.887215,64.866173 
M18.743248,26.040205 
	C15.380169,25.572626 14.059192,26.788486 14.116616,30.409157 
	C14.314541,42.888275 14.178471,55.372505 14.215546,67.854652 
	C14.219071,69.041595 14.543826,70.227577 14.719450,71.414009 
	C15.161384,71.393784 15.603316,71.373558 16.045250,71.353333 
	C16.045250,57.048862 16.045250,42.744396 16.045250,28.409599 
	C40.335506,28.409599 63.896416,28.409599 88.320847,28.409599 
	C88.320847,42.841904 88.320847,57.006802 88.320847,71.171700 
	C88.788651,71.171471 89.256462,71.171234 89.724266,71.171005 
	C89.823189,69.782394 90.005333,68.393951 90.007957,67.005157 
	C90.030655,55.022232 89.872459,43.036350 90.106071,31.057938 
	C90.182060,27.161963 89.149567,25.911398 85.101570,25.947683 
	C63.300983,26.143108 41.497715,26.039822 18.743248,26.040205 
M64.499985,78.121643 
	C72.532867,78.121643 80.565750,78.121643 88.598633,78.121643 
	C88.572258,77.650345 88.545883,77.179054 88.519501,76.707756 
	C64.126396,76.707756 39.733295,76.707756 15.340190,76.707756 
	C15.340853,77.179108 15.341516,77.650459 15.342178,78.121811 
	C31.394781,78.121811 47.447384,78.121811 64.499985,78.121643 
z"/>
<path fill="#4D537A" opacity="1.000000" stroke="none" 
	d="
M19.219311,26.039907 
	C41.497715,26.039822 63.300983,26.143108 85.101570,25.947683 
	C89.149567,25.911398 90.182060,27.161963 90.106071,31.057938 
	C89.872459,43.036350 90.030655,55.022232 90.007957,67.005157 
	C90.005333,68.393951 89.823189,69.782394 89.724266,71.171005 
	C89.256462,71.171234 88.788651,71.171471 88.320847,71.171700 
	C88.320847,57.006802 88.320847,42.841904 88.320847,28.409599 
	C63.896416,28.409599 40.335506,28.409599 16.045250,28.409599 
	C16.045250,42.744396 16.045250,57.048862 16.045250,71.353333 
	C15.603316,71.373558 15.161384,71.393784 14.719450,71.414009 
	C14.543826,70.227577 14.219071,69.041595 14.215546,67.854652 
	C14.178471,55.372505 14.314541,42.888275 14.116616,30.409157 
	C14.059192,26.788486 15.380169,25.572626 19.219311,26.039907 
z"/>
<path fill="#F2E9E7" opacity="1.000000" stroke="none" 
	d="
M68.663040,39.174831 
	C72.634331,38.506653 72.306129,42.434464 73.658066,44.521347 
	C73.046394,45.374077 72.502922,45.941448 72.585602,46.394573 
	C73.308022,50.353977 78.792694,53.093723 75.551727,58.081154 
	C76.038948,58.174465 76.526169,58.267776 77.013390,58.361092 
	C76.059212,59.406643 75.105034,60.452198 73.606018,62.094765 
	C77.095398,62.094765 80.212791,62.094765 83.756653,62.094765 
	C80.217651,67.166595 73.552216,67.118690 70.272270,63.125008 
	C67.176086,63.759151 64.332817,64.341499 61.134090,64.575806 
	C60.790318,63.829464 60.801998,63.431149 61.025417,62.724689 
	C63.712452,54.669312 66.187744,46.922070 68.663040,39.174831 
z"/>
<path fill="#ED2D81" opacity="1.000000" stroke="none" 
	d="
M38.777878,65.013718 
	C37.203075,61.476017 35.628273,57.938313 34.260040,54.864658 
	C31.324862,52.916420 26.845135,59.469143 25.495050,52.786400 
	C26.999964,49.883350 33.033623,51.627235 31.793392,45.648220 
	C27.652599,47.038593 23.946249,48.283089 20.209078,49.537937 
	C18.169825,47.129814 17.934982,45.405369 21.268818,44.352894 
	C26.155312,42.810249 31.011421,41.171345 36.377151,39.410465 
	C38.064159,44.063961 39.671818,48.498566 41.553131,53.467731 
	C41.844570,54.505863 41.862354,55.009438 41.618919,55.804111 
	C40.497765,59.068047 39.637821,62.040882 38.777878,65.013718 
z"/>
<path fill="#4B5279" opacity="1.000000" stroke="none" 
	d="
M68.259628,39.168514 
	C66.187744,46.922070 63.712452,54.669312 60.688660,62.637577 
	C59.058720,60.546982 57.977276,58.235363 56.903450,55.608337 
	C57.085896,54.495152 57.260727,53.697369 57.435555,52.899590 
	C58.402149,50.085640 59.657909,47.332710 60.267605,44.443447 
	C61.183376,40.103710 63.394573,38.151283 68.259628,39.168514 
z"/>
<path fill="#F35F9C" opacity="1.000000" stroke="none" 
	d="
M63.999985,78.121727 
	C47.447384,78.121811 31.394781,78.121811 15.342178,78.121811 
	C15.341516,77.650459 15.340853,77.179108 15.340190,76.707756 
	C39.733295,76.707756 64.126396,76.707756 88.519501,76.707756 
	C88.545883,77.179054 88.572258,77.650345 88.598633,78.121643 
	C80.565750,78.121643 72.532867,78.121643 63.999985,78.121727 
z"/>
<path fill="#F288CD" opacity="1.000000" stroke="none" 
	d="
M57.140446,52.563026 
	C57.260727,53.697369 57.085896,54.495152 56.673985,55.886189 
	C55.452106,59.342049 54.467308,62.204655 53.482513,65.067261 
	C52.194016,61.188843 50.905525,57.310421 49.336609,52.810375 
	C49.240150,51.221333 49.424122,50.253918 49.788528,48.980804 
	C50.671955,45.512451 51.374954,42.349800 52.077950,39.187149 
	C53.667080,43.533588 55.256210,47.880024 57.140446,52.563026 
z"/>
<path fill="#474D76" opacity="1.000000" stroke="none" 
	d="
M49.608093,49.286503 
	C49.424122,50.253918 49.240150,51.221333 49.076050,52.553837 
	C48.022209,56.490963 46.948494,60.062996 45.328430,63.695614 
	C43.814762,61.008465 42.847450,58.260738 41.880142,55.513008 
	C41.862354,55.009438 41.844570,54.505863 41.797157,53.759487 
	C42.852570,49.789005 43.937611,46.061329 45.552666,42.234779 
	C47.257820,44.519436 48.432957,46.902969 49.608093,49.286503 
z"/>
<path fill="#4C3B73" opacity="1.000000" stroke="none" 
	d="
M49.788528,48.980804 
	C48.432957,46.902969 47.257820,44.519436 45.727631,41.931824 
	C45.858875,37.588493 49.090683,39.601776 51.644123,39.154930 
	C51.374954,42.349800 50.671955,45.512451 49.788528,48.980804 
z"/>
<path fill="#483570" opacity="1.000000" stroke="none" 
	d="
M53.720146,65.381897 
	C54.467308,62.204655 55.452106,59.342049 56.666367,56.201591 
	C57.977276,58.235363 59.058720,60.546982 60.476921,62.945717 
	C60.801998,63.431149 60.790318,63.829464 60.808670,64.526382 
	C60.838703,64.824974 60.887215,64.866173 60.519440,64.897057 
	C59.109375,65.308968 58.067093,65.689995 57.024807,66.071014 
	C56.002464,65.946190 54.980122,65.821358 53.720146,65.381897 
z"/>
<path fill="#3A426E" opacity="1.000000" stroke="none" 
	d="
M77.367294,58.282494 
	C76.526169,58.267776 76.038948,58.174465 75.551727,58.081154 
	C78.792694,53.093723 73.308022,50.353977 72.585602,46.394573 
	C72.502922,45.941448 73.046394,45.374077 73.668045,44.864166 
	C75.708717,48.062889 77.572289,51.179005 78.928574,54.502159 
	C79.302803,55.419083 78.165146,56.953053 77.367294,58.282494 
z"/>
<path fill="#431E5C" opacity="1.000000" stroke="none" 
	d="
M41.618923,55.804111 
	C42.847450,58.260738 43.814762,61.008465 45.109787,63.967136 
	C43.515404,64.481041 41.593315,64.784004 39.224548,65.050339 
	C39.637821,62.040882 40.497765,59.068047 41.618923,55.804111 
z"/>
<path fill="#F2E9E7" opacity="1.000000" stroke="none" 
	d="
M57.258469,66.328384 
	C58.067093,65.689995 59.109375,65.308968 60.509987,64.869553 
	C59.742920,65.402695 58.617523,65.994217 57.258469,66.328384 
z"/>
</svg>